<svg xmlns="http://www.w3.org/2000/svg" viewBox="0 0 16 16" fill="none"><path fill="#863bff" d="M6.211 13.0614C5.9145 13.5376 5.28436 13.6768 4.81485 13.3699L4.67403 13.2778C4.2111 12.9751 4.0818 12.3541 4.38547 11.8918L5.18251 10.6784C5.61931 10.0134 5.14231 9.12938 4.3467 9.12938H3C2.44772 9.12938 2 8.68167 2 8.12938V7.87056C2 7.31827 2.44772 6.87056 3 6.87056H4.3467C5.14231 6.87056 5.61931 5.98652 5.18251 5.32154L4.38547 4.10814C4.0818 3.64584 4.2111 3.02484 4.67403 2.72215L4.81124 2.63244C5.28214 2.32455 5.91424 2.46557 6.20961 2.94442L7.15527 4.47755C7.54439 5.1084 8.46057 5.11148 8.85394 4.48327L9.82347 2.93492C10.1207 2.46031 10.7496 2.32222 11.2183 2.62866L11.3555 2.7184C11.8207 3.02255 11.9486 3.64764 11.6403 4.11007L10.8365 5.31586C10.3934 5.98041 10.8698 6.87056 11.6685 6.87056H13C13.5523 6.87056 14 7.31827 14 7.87056V8.12938C14 8.68167 13.5523 9.12938 13 9.12938H11.6685C10.8698 9.12938 10.3934 10.0195 10.8365 10.6841L11.6403 11.8899C11.9486 12.3523 11.8207 12.9774 11.3555 13.2815L11.2147 13.3736C10.7474 13.6792 10.1204 13.5429 9.82212 13.071L8.85167 11.5356C8.45761 10.9122 7.5473 10.9153 7.15747 11.5414L6.211 13.0614Z"/></svg>
